# xmcd
#
# Track frame offsets:
#	183
#	18233
#	35933
#	66410
#	84733
#	115505
#	145815
#
# Disc length: 2358 seconds
# Revision: 0
# Processed by: cddbd v1.5.2PL0 Copyright (c) Steve Scherf et al.
# Submitted via: dBpowerAMP V12.0
#
DISCID=5d093407
DTITLE=Legacy Of Sound feat. Meja - I Can't Let U Go
DYEAR=1993
DGENRE=House
TTITLE0=I Can’t Let U Go [Radio Version]
TTITLE1=I Can’t Let U Go [Bag and Snowman Radio Edit]
TTITLE2=I Can’t Let U Go [Nice and Stoned Classic Club Mix]
TTITLE3=I Can’t Let U Go [Nice and Stoned Dub]
TTITLE4=I Can’t Let U Go [Nice and Stoned Vocal Dub]
TTITLE5=I Can’t Let U Go [JJ International Mix]
TTITLE6=I Can’t Let U Go [Bag and Snowman Remix]
EXTD=
EXTT0=
EXTT1=
EXTT2=
EXTT3=
EXTT4=
EXTT5=
EXTT6=
PLAYORDER=
